<?xml version="1.0" encoding="UTF-8"?>
<svg width="32" height="32" version="1.1" viewBox="0 0 100 100" xmlns="http://www.w3.org/2000/svg">
 <g transform="matrix(2.883 0 0 2.883 -245.04 -648.52)" stroke-width=".34686">
  <path d="m95.864 236.31c3.6182 0.37584 4.1873-0.41567 6.2532-0.2279 7.7749-1.2468 10.823 4.4032 10.956 10.524 0.0898 4.1421-3.5548 11.751-7.397 12.248-1.3223 0.1172-2.5253-0.51385-3.7358-0.58734-2.394-0.14539-2.0443 2.3786-6.4952 0.15341-6.2784-4.8707-6.2452-9.4569-6.561-11.017 0.26619-10.436 5.0756-11.048 6.9803-11.094z" fill="#be1900" vector-effect="non-scaling-stroke" style="-inkscape-stroke:hairline"/>
  <path d="m100.07 239 1.8017 0.30151c-0.73283-0.87743-1.0694-1.9838-1.3466-3.1245-0.13023-1.4005 0.7448-2.4105 1.7349-3.3759 4.4051-2.0541 10.502-0.77122 13.134-6.3216 0.41005-0.50763-13.633-4.318-13.888 6.4833-0.71133 0.71275-1.3153 1.5368-1.3038 2.4005-0.67762-1.652 0.16682-1.4885-0.25971-1.5408-1.3904-0.23886-0.52448-0.63021-0.91434-0.7573-0.41246-0.15584-0.85687 0.0465-1.0406 0.31061 0.12845 1.0827 2.8421 3.8898 2.0817 5.6242z" fill="#009f23" vector-effect="non-scaling-stroke" style="-inkscape-stroke:hairline"/>
 </g>
</svg>
