<?xml version="1.0" encoding="UTF-8"?>
<!-- Created with Inkscape (http://www.inkscape.org/) -->
<svg width="32" height="32" version="1.1" viewBox="0 0 100 100" xmlns="http://www.w3.org/2000/svg">
 <path d="m70.926 7.7135c-4.0138 3.5135-37.49-1.2266-37.592 2.4874 44.939 13.565-38.706 73.129-5.4214 83.145 20.878 1.6855 35.474 3.5982 31.846-14.401-30.91-17.2 41.913-62.796 11.168-71.231z" fill="#666" stroke-width="3.125" vector-effect="non-scaling-stroke" style="-inkscape-stroke:hairline"/>
 <path d="m42.843 16.93c22.356 17.268 28.517 24.142 28.426 31.351-0.14083 11.249-4.0827 19.205-19.248 37.616 2.8267 4.2902 29.158-6.0037 32.761-35.713-1.1388-7.7398-23.2-45.374-41.94-33.254z" fill="#333" stroke-width="3.125" vector-effect="non-scaling-stroke" style="-inkscape-stroke:hairline"/>
 <path d="m49.904 4.3396c-8.1071 0.08407-14.571 1.8249-21.166 3.4363-13.437 4.1486 54.094 20.93 53.701 42.405-0.38575 21.113-34.951 23.126-55.417 42.882 11.971 2.812 23.84 5.8289 45.129-0.4118 8.0712-5.2757 11.873-25.583 12.674-42.456s-28.917-29.93-12.195-42.206c-9.123-2.7813-16.421-3.7153-22.727-3.6499z" fill="#ccc" stroke-width="3.125" vector-effect="non-scaling-stroke" style="-inkscape-stroke:hairline"/>
</svg>
